<svg xmlns="http://www.w3.org/2000/svg" viewBox="0 0 48 48"><g data-name="12-Sport"><path d="m6.917 39.941-.7-1.875a15.006 15.006 0 0 0 0-28.132l.7-1.875a17.006 17.006 0 0 1 0 31.882z"/><path d="M24 48a24 24 0 1 1 7.3-46.868l-.6 1.905a22 22 0 1 0-3.825 42.777l.258 1.984A24.345 24.345 0 0 1 24 48z"/><path d="M23 1h2v46h-2z"/><path d="M1 23h26v2H1zM45 48H33a1 1 0 0 1-1-1v-2h-1a1 1 0 0 1-1-1V15a2 2 0 0 1 2-2h14a2 2 0 0 1 2 2v29a1 1 0 0 1-1 1h-1v2a1 1 0 0 1-1 1zm-11-2h10v-2a1 1 0 0 1 1-1h1V15H32v28h1a1 1 0 0 1 1 1z"/><path d="M42 15h-6a1 1 0 0 1-1-1v-4a1 1 0 0 1 1-1h6a1 1 0 0 1 1 1v4a1 1 0 0 1-1 1zm-5-2h4v-2h-4z"/><path d="M45 11H33a1 1 0 0 1-1-1V7a2 2 0 0 1 2-2h10a2 2 0 0 1 2 2v3a1 1 0 0 1-1 1zM34 9h10V7H34zM33 43h8v2h-8zM34 20h10v2H34zM34 36h10v2H34zM39 33a4 4 0 1 1 4-4 4 4 0 0 1-4 4zm0-6a2 2 0 1 0 2 2 2 2 0 0 0-2-2z"/></g></svg>